<?xml version="1.0" encoding="utf-8"?>
<!-- Generator: Adobe Illustrator 18.1.1, SVG Export Plug-In . SVG Version: 6.00 Build 0)  -->
<svg version="1.1" id="Capa_1" xmlns="http://www.w3.org/2000/svg" xmlns:xlink="http://www.w3.org/1999/xlink" x="0px" y="0px"
	 viewBox="-164 42.3 512 512" enable-background="new -164 42.3 512 512" xml:space="preserve">
<g>
	<linearGradient id="SVGID_1_" gradientUnits="userSpaceOnUse" x1="-164" y1="298.28" x2="348" y2="298.28">
		<stop  offset="0" style="stop-color:#26A9E0"/>
		<stop  offset="9.141415e-002" style="stop-color:#2297D3"/>
		<stop  offset="0.2221" style="stop-color:#1E84C6"/>
		<stop  offset="0.3566" style="stop-color:#1C79BE"/>
		<stop  offset="0.5" style="stop-color:#1B75BB"/>
		<stop  offset="1" style="stop-color:#2B388F"/>
	</linearGradient>
	<path fill="url(#SVGID_1_)" d="M284,106.3h-384c-35.3,0-64,28.7-64,64v256c0,35.3,28.7,64,64,64h384c35.3,0,64-28.7,64-64v-256
		C348,134.9,319.3,106.3,284,106.3z M178.7,277.1L314.1,161c0.9,3,1.9,6,1.9,9.3v256c0,2.2-0.8,4.2-1.3,6.3L178.7,277.1z M284,138.3
		c2.1,0,4,0.8,6,1.2L92,309.2l-198-169.7c2-0.4,3.9-1.2,6-1.2H284z M-130.7,432.5c-0.4-2.1-1.3-4-1.3-6.3v-256c0-3.3,1-6.3,1.9-9.3
		L5.3,277L-130.7,432.5z M-100,458.3c-3.2,0-6.2-0.9-9.1-1.8L29.6,297.9l52,44.5c3,2.6,6.7,3.9,10.4,3.9s7.4-1.3,10.4-3.9l52-44.5
		l138.8,158.6c-2.9,0.9-5.9,1.8-9.1,1.8H-100z"/>
</g>
</svg>
