<?xml version="1.0" encoding="utf-8"?>
<!-- Generator: Adobe Illustrator 18.1.1, SVG Export Plug-In . SVG Version: 6.00 Build 0)  -->
<svg version="1.1" id="Capa_1" xmlns="http://www.w3.org/2000/svg" xmlns:xlink="http://www.w3.org/1999/xlink" x="0px" y="0px"
	 viewBox="-164 42.3 512 512" enable-background="new -164 42.3 512 512" xml:space="preserve">
<g>
	<linearGradient id="SVGID_1_" gradientUnits="userSpaceOnUse" x1="-164" y1="298.28" x2="348.0044" y2="298.28">
		<stop  offset="0" style="stop-color:#26A9E0"/>
		<stop  offset="9.141415e-002" style="stop-color:#2297D3"/>
		<stop  offset="0.2221" style="stop-color:#1E84C6"/>
		<stop  offset="0.3566" style="stop-color:#1C79BE"/>
		<stop  offset="0.5" style="stop-color:#1B75BB"/>
		<stop  offset="1" style="stop-color:#2B388F"/>
	</linearGradient>
	<path fill="url(#SVGID_1_)" d="M92,53.7c-141.2,0-256,95.6-256,213.2c0,114.8,99.7,206.3,231.9,212.8c9,0.4,16.6-6.5,17-15.4
		c0.4-9-6.5-16.6-15.4-17c-114.6-5.6-201-83.1-201-180.3c0-99.6,100.3-180.7,223.5-180.7s223.5,81.1,223.5,180.7
		c0,92.7-118.4,193.4-235.3,244.9c-8.2,3.6-11.9,13.2-8.3,21.4c2.7,6.1,8.6,9.7,14.9,9.7c2.2,0,4.4-0.4,6.5-1.4
		c62.7-27.6,124.5-68.4,169.6-111.9C318.6,376,348,319.7,348,266.9C348,149.3,233.2,53.7,92,53.7z"/>
	<linearGradient id="SVGID_2_" gradientUnits="userSpaceOnUse" x1="-57.9014" y1="270.3127" x2="18.1214" y2="270.3127">
		<stop  offset="0" style="stop-color:#26A9E0"/>
		<stop  offset="9.141415e-002" style="stop-color:#2297D3"/>
		<stop  offset="0.2221" style="stop-color:#1E84C6"/>
		<stop  offset="0.3566" style="stop-color:#1C79BE"/>
		<stop  offset="0.5" style="stop-color:#1B75BB"/>
		<stop  offset="1" style="stop-color:#2B388F"/>
	</linearGradient>
	<path fill="url(#SVGID_2_)" d="M-33.8,214.9c-2.6-3.2-6.2-4.9-10.3-4.9c-4.2,0-7.7,1.7-10.3,5.1c-2.3,3.1-3.5,7.2-3.5,12.8v84.8
		c0,5.9,1.2,10.3,3.7,13.2c2.7,3.2,6.8,4.8,12.3,4.8H4.2c4.4,0,7.8-1.3,10.3-3.8c2.4-2.5,3.7-5.7,3.7-9.6c0-3.8-1.3-7.1-3.7-9.6
		c-2.4-2.6-5.9-4-10.2-4h-34.4v-75.8C-30.2,222.2-31.4,217.9-33.8,214.9z"/>
	<linearGradient id="SVGID_3_" gradientUnits="userSpaceOnUse" x1="25.3831" y1="271.2564" x2="53.1554" y2="271.2564">
		<stop  offset="0" style="stop-color:#26A9E0"/>
		<stop  offset="9.141415e-002" style="stop-color:#2297D3"/>
		<stop  offset="0.2221" style="stop-color:#1E84C6"/>
		<stop  offset="0.3566" style="stop-color:#1C79BE"/>
		<stop  offset="0.5" style="stop-color:#1B75BB"/>
		<stop  offset="1" style="stop-color:#2B388F"/>
	</linearGradient>
	<path fill="url(#SVGID_3_)" d="M39.2,210c-4.1,0-7.7,1.7-10.2,5c-2.3,3-3.5,7.3-3.5,12.8v86.8c0,5.6,1.2,9.8,3.6,12.9
		c2.6,3.3,6.1,5.1,10.2,5.1c4.2,0,7.7-1.7,10.4-5c2.4-3.1,3.6-7.4,3.6-12.9v-86.8c0-5.5-1.2-9.9-3.7-12.9
		C46.9,211.7,43.3,210,39.2,210z"/>
	<linearGradient id="SVGID_4_" gradientUnits="userSpaceOnUse" x1="68.6993" y1="271.2585" x2="156.2137" y2="271.2585">
		<stop  offset="0" style="stop-color:#26A9E0"/>
		<stop  offset="9.141415e-002" style="stop-color:#2297D3"/>
		<stop  offset="0.2221" style="stop-color:#1E84C6"/>
		<stop  offset="0.3566" style="stop-color:#1C79BE"/>
		<stop  offset="0.5" style="stop-color:#1B75BB"/>
		<stop  offset="1" style="stop-color:#2B388F"/>
	</linearGradient>
	<path fill="url(#SVGID_4_)" d="M95.2,267.6l27.7,49.6c0,0,0,0.1,0.1,0.1c0.7,1.1,1.3,2.2,2,3.2l1.2,1.9c1.3,2.1,2.6,3.8,4,5.2
		c1.6,1.7,3.3,2.9,5.2,3.7c2,0.8,4.1,1.2,6.3,1.2c5.5,0,14.6-2.4,14.6-18.8v-86.6c0-5.3-1-9.2-3.2-12.2c-2.4-3.2-5.9-4.9-10-4.9
		c-4,0-7.4,1.7-9.8,4.9c-2.2,3-3.2,6.9-3.2,12.2v49l-28.6-50.6l-1.5-2.7l-1.5-2.7c-1.2-2.1-2.3-3.7-3.3-5c-1.2-1.5-2.8-2.8-4.5-3.7
		c-1.8-1-3.9-1.5-6.4-1.5c-3.2,0-6.1,1-8.7,3c-2.5,1.9-4.4,4.4-5.5,7.5c0,0,0,0.1,0,0.1c-0.8,2.5-1.2,5.7-1.2,9.9v85
		c0,5,1.1,9.1,3.2,12c0,0,0,0.1,0.1,0.1c2.5,3.2,5.9,5,10,5c4,0,7.4-1.7,9.9-4.9c2.3-2.9,3.4-7,3.4-12.2L95.2,267.6L95.2,267.6z"/>
	<linearGradient id="SVGID_5_" gradientUnits="userSpaceOnUse" x1="171.0772" y1="271.2455" x2="252.3766" y2="271.2455">
		<stop  offset="0" style="stop-color:#26A9E0"/>
		<stop  offset="9.141415e-002" style="stop-color:#2297D3"/>
		<stop  offset="0.2221" style="stop-color:#1E84C6"/>
		<stop  offset="0.3566" style="stop-color:#1C79BE"/>
		<stop  offset="0.5" style="stop-color:#1B75BB"/>
		<stop  offset="1" style="stop-color:#2B388F"/>
	</linearGradient>
	<path fill="url(#SVGID_5_)" d="M237.5,237.7c4.2,0,7.6-1.2,9.9-3.7c2.3-2.4,3.4-5.5,3.4-9.3c0-3.7-1.2-6.8-3.4-9.2
		c-2.3-2.4-5.6-3.7-9.9-3.7h-50.4c-3.4,0-6.3,0.6-8.7,1.9c-2.6,1.4-4.6,3.7-5.8,6.6c-1,2.5-1.5,5.6-1.5,9.5v82.8
		c0,5.9,1.2,10.3,3.8,13.3c2.6,3.1,6.8,4.7,12.3,4.7H239c4.2,0,7.6-1.3,10-3.8c2.3-2.5,3.4-5.6,3.4-9.3c0-3.8-1.1-7-3.4-9.5
		c-2.4-2.6-5.8-3.8-10-3.8h-40.1v-22.7h35.2c4.3,0,7.5-1.3,9.8-3.8c2.1-2.4,3.2-5.4,3.2-9c0-3.7-1.1-6.7-3.3-9
		c-2.2-2.4-5.5-3.7-9.7-3.7h-35.2v-18.4L237.5,237.7L237.5,237.7z"/>
</g>
</svg>
