<?xml version="1.0" encoding="utf-8"?>
<!-- Generator: Adobe Illustrator 18.1.1, SVG Export Plug-In . SVG Version: 6.00 Build 0)  -->
<svg version="1.1" id="Layer_1" xmlns="http://www.w3.org/2000/svg" xmlns:xlink="http://www.w3.org/1999/xlink" x="0px" y="0px"
	 viewBox="0 0 187.3 191" enable-background="new 0 0 187.3 191" xml:space="preserve">
<circle fill="#FFFFFF" cx="93.6" cy="95.5" r="83.3"/>
<linearGradient id="SVGID_1_" gradientUnits="userSpaceOnUse" x1="40.1723" y1="95.5084" x2="147.1116" y2="95.5084">
	<stop  offset="0" style="stop-color:#26A9E0"/>
	<stop  offset="9.141415e-002" style="stop-color:#2297D3"/>
	<stop  offset="0.2221" style="stop-color:#1E84C6"/>
	<stop  offset="0.3566" style="stop-color:#1C79BE"/>
	<stop  offset="0.5" style="stop-color:#1B75BB"/>
	<stop  offset="1" style="stop-color:#2B388F"/>
</linearGradient>
<path display="none" fill="url(#SVGID_1_)" d="M139.8,122.7H46.6c-1.9,0-3.6-1.5-3.7-3.4c-0.1-2.1,1.6-3.8,3.6-3.8h24.8
	c0,0,1.2,0,1.4,0l21.3-6.6c0.2-0.1,0.4-0.2,0.6-0.3l34.7-34.7c2.5-2.5,3.7-5.8,3.4-9.3c-0.2-2.4-1.2-4.7-2.7-6.6
	c-2.3-2.7-5.5-4.2-8.9-4.2c-3.2,0-6.3,1.3-8.6,3.6L77.9,91.9c-0.2,0.2-0.3,0.3-0.3,0.6l-6.3,20.3H46.6c-3.4,0-6.4,2.7-6.5,6.1
	c-0.1,3.6,2.8,6.5,6.3,6.5h93.2c2.5,0,4.6,1.9,4.7,4.4c0.1,2.6-2,4.8-4.6,4.8H71.2c-0.7,0-1.4,0.6-1.4,1.4c0,0.7,0.6,1.4,1.4,1.4
	h68.5c4.1,0,7.5-3.3,7.5-7.4C147,125.9,143.8,122.7,139.8,122.7z M120.9,56.4c2.4,0,4.7,0.9,6.4,2.7c1.7,1.7,2.7,4,2.7,6.4
	c0,2.2-0.8,4.4-2.3,6c0.3-3.4-0.8-6.8-3.4-9.4c-2.6-2.6-6-3.7-9.4-3.4C116.6,57.2,118.7,56.4,120.9,56.4z M109.6,64
	c3.5-3.5,9.3-3.5,12.8,0c3.5,3.5,3.5,9.3,0,12.8l-27.7,27.7c-1.1-6.5-6.4-11.7-12.9-12.8L109.6,64z M79.8,94.3
	c6.7,0.3,12,5.6,12.4,12.3l-8.5,2.6c-0.7-3.1-3.2-5.7-6.5-6.4L79.8,94.3z M76.4,105.4c2.3,0.4,4.2,2.3,4.7,4.6l-6.7,2.1L76.4,105.4z
	"/>
<g>
	<linearGradient id="SVGID_2_" gradientUnits="userSpaceOnUse" x1="42.8336" y1="95.5084" x2="144.4503" y2="95.5084">
		<stop  offset="0" style="stop-color:#26A9E0"/>
		<stop  offset="9.141415e-002" style="stop-color:#2297D3"/>
		<stop  offset="0.2221" style="stop-color:#1E84C6"/>
		<stop  offset="0.3566" style="stop-color:#1C79BE"/>
		<stop  offset="0.5" style="stop-color:#1B75BB"/>
		<stop  offset="1" style="stop-color:#2B388F"/>
	</linearGradient>
	<path fill="url(#SVGID_2_)" d="M142,75.9h-2.5c0-0.9-0.1-1.8-0.2-2.7c-0.1-1.3-1.3-2.3-2.7-2.1c-1.3,0.1-2.3,1.3-2.1,2.7
		c0.1,0.7,0.1,1.4,0.2,2.2h-4.8C128.6,57,112.8,42,93.6,42s-35,15-36.2,33.9h-4.8c0-0.7,0.1-1.4,0.2-2.2c0.1-1.3-0.8-2.5-2.1-2.7
		c-1.3-0.1-2.5,0.8-2.7,2.1c-0.1,0.9-0.2,1.8-0.2,2.7h-2.5c-1.3,0-2.4,1.1-2.4,2.4c0,1.3,1.1,2.4,2.4,2.4h2.5
		c1.2,22.1,18,40.1,39.6,43.1v20.3h-19c-1.3,0-2.4,1.1-2.4,2.4c0,1.3,1.1,2.4,2.4,2.4h49.5c1.3,0,2.4-1.1,2.4-2.4
		c0-1.3-1.1-2.4-2.4-2.4h-18v-20.3c21.6-3,38.5-21,39.6-43.1h2.5c1.3,0,2.4-1.1,2.4-2.4C144.5,77,143.4,75.9,142,75.9z M93.6,46.9
		c17.3,0,31.5,14.1,31.5,31.5s-14.1,31.5-31.5,31.5S62.2,95.7,62.2,78.3S76.3,46.9,93.6,46.9z M95.1,144.1h-2.9v-19.9
		c0.5,0,1,0,1.5,0c0.5,0,1,0,1.5,0V144.1z M97.3,119.3C97.3,119.3,97.3,119.3,97.3,119.3c-1.2,0.1-2.4,0.2-3.6,0.2
		c-1.2,0-2.4-0.1-3.6-0.2c0,0,0,0,0,0c-20.2-1.8-36.2-18.2-37.4-38.5h4.8c1.2,18.9,17,33.9,36.2,33.9s35-15,36.2-33.9h4.8
		C133.5,101.1,117.5,117.5,97.3,119.3z"/>
	<linearGradient id="SVGID_3_" gradientUnits="userSpaceOnUse" x1="88.5525" y1="67.6335" x2="110.6199" y2="67.6335">
		<stop  offset="0" style="stop-color:#26A9E0"/>
		<stop  offset="9.141415e-002" style="stop-color:#2297D3"/>
		<stop  offset="0.2221" style="stop-color:#1E84C6"/>
		<stop  offset="0.3566" style="stop-color:#1C79BE"/>
		<stop  offset="0.5" style="stop-color:#1B75BB"/>
		<stop  offset="1" style="stop-color:#2B388F"/>
	</linearGradient>
	<path fill="url(#SVGID_3_)" d="M89.3,78c0.5,0.5,1.1,0.7,1.7,0.7c0.6,0,1.2-0.2,1.7-0.7l17.2-17.2c0.9-0.9,0.9-2.5,0-3.4
		c-0.9-0.9-2.5-0.9-3.4,0L89.3,74.5C88.3,75.5,88.3,77,89.3,78z"/>
	<linearGradient id="SVGID_4_" gradientUnits="userSpaceOnUse" x1="71.9112" y1="87.9899" x2="86.5479" y2="87.9899">
		<stop  offset="0" style="stop-color:#26A9E0"/>
		<stop  offset="9.141415e-002" style="stop-color:#2297D3"/>
		<stop  offset="0.2221" style="stop-color:#1E84C6"/>
		<stop  offset="0.3566" style="stop-color:#1C79BE"/>
		<stop  offset="0.5" style="stop-color:#1B75BB"/>
		<stop  offset="1" style="stop-color:#2B388F"/>
	</linearGradient>
	<path fill="url(#SVGID_4_)" d="M82.4,81.4l-9.8,9.8c-0.9,0.9-0.9,2.5,0,3.4c0.5,0.5,1.1,0.7,1.7,0.7s1.2-0.2,1.7-0.7l9.8-9.8
		c0.9-0.9,0.9-2.5,0-3.4C84.9,80.4,83.4,80.4,82.4,81.4z"/>
	<linearGradient id="SVGID_5_" gradientUnits="userSpaceOnUse" x1="67.1317" y1="67.4" x2="98.2911" y2="67.4">
		<stop  offset="0" style="stop-color:#26A9E0"/>
		<stop  offset="9.141415e-002" style="stop-color:#2297D3"/>
		<stop  offset="0.2221" style="stop-color:#1E84C6"/>
		<stop  offset="0.3566" style="stop-color:#1C79BE"/>
		<stop  offset="0.5" style="stop-color:#1B75BB"/>
		<stop  offset="1" style="stop-color:#2B388F"/>
	</linearGradient>
	<path fill="url(#SVGID_5_)" d="M97.6,52.5c-0.9-0.9-2.5-0.9-3.4,0L67.8,78.8c-0.9,0.9-0.9,2.5,0,3.4c0.5,0.5,1.1,0.7,1.7,0.7
		c0.6,0,1.2-0.2,1.7-0.7L97.6,56C98.5,55,98.5,53.5,97.6,52.5z"/>
</g>
<g display="none">
	<linearGradient id="SVGID_6_" gradientUnits="userSpaceOnUse" x1="137.9385" y1="86.7183" x2="147.1117" y2="86.7183">
		<stop  offset="0" style="stop-color:#26A9E0"/>
		<stop  offset="9.141415e-002" style="stop-color:#2297D3"/>
		<stop  offset="0.2221" style="stop-color:#1E84C6"/>
		<stop  offset="0.3566" style="stop-color:#1C79BE"/>
		<stop  offset="0.5" style="stop-color:#1B75BB"/>
		<stop  offset="1" style="stop-color:#2B388F"/>
	</linearGradient>
	<path display="inline" fill="url(#SVGID_6_)" d="M142,70.8c-0.7-1-2.1-1.3-3.2-0.5c-1,0.7-1.3,2.1-0.5,3.2
		c2.8,3.9,4.2,8.5,4.2,13.3c0,4.8-1.5,9.4-4.2,13.3c-0.7,1-0.5,2.4,0.5,3.2c0.4,0.3,0.9,0.4,1.3,0.4c0.7,0,1.4-0.3,1.8-1
		c3.3-4.7,5.1-10.2,5.1-15.9C147.1,81,145.4,75.5,142,70.8z"/>
	<linearGradient id="SVGID_7_" gradientUnits="userSpaceOnUse" x1="40.1722" y1="95.5084" x2="133.9805" y2="95.5084">
		<stop  offset="0" style="stop-color:#26A9E0"/>
		<stop  offset="9.141415e-002" style="stop-color:#2297D3"/>
		<stop  offset="0.2221" style="stop-color:#1E84C6"/>
		<stop  offset="0.3566" style="stop-color:#1C79BE"/>
		<stop  offset="0.5" style="stop-color:#1B75BB"/>
		<stop  offset="1" style="stop-color:#2B388F"/>
	</linearGradient>
	<path display="inline" fill="url(#SVGID_7_)" d="M120.9,72.2V61.5c0-2.4-1.3-4.6-3.4-5.8c-2.1-1.2-4.7-1.1-6.7,0.1
		C99.8,62.5,87.2,66,74.3,66c0,0,0,0,0,0h0H57.8c-4,0-7.3,3.1-7.7,7.1h-3.6c-3.5,0-6.3,2.8-6.3,6.3V94c0,3.5,2.8,6.3,6.3,6.3h3.6
		c0.2,3,2.2,5.5,4.9,6.5l9.6,26.4c0.6,1.7,2.3,2.9,4.1,2.9h12.4c1.4,0,2.8-0.7,3.6-1.9c0.8-1.2,1-2.7,0.5-4L77,107.5
		c12,0.5,23.6,3.9,33.8,10.2c1.1,0.7,2.3,1,3.5,1c1.1,0,2.2-0.3,3.3-0.9c2.1-1.2,3.4-3.3,3.4-5.8v-10.8c7.3-0.8,13.1-7,13.1-14.5
		C134,79.2,128.2,73,120.9,72.2z M50.1,95.8h-3.6c-1,0-1.8-0.8-1.8-1.8V79.4c0-1,0.8-1.8,1.8-1.8h3.6V95.8z M81,131.7H68.8L60,107.4
		h12.2L81,131.7z M115.3,113.8c-0.3,0.2-1.2,0.5-2.2,0c-11.7-7.1-25.1-10.9-38.8-10.9H57.8c-1.8,0-3.2-1.4-3.2-3.2v-26
		c0-1.8,1.4-3.2,3.2-3.2h13.7v23.6c0,1.2,1,2.3,2.3,2.3s2.3-1,2.3-2.3V70.5c13.2-0.3,26-4,37.1-10.8c1-0.6,1.8-0.2,2.2,0
		c0.3,0.2,1.1,0.7,1.1,1.8V112h0C116.4,113.1,115.6,113.6,115.3,113.8z M120.9,96.6V76.8c4.8,0.7,8.5,4.9,8.5,9.9
		C129.5,91.7,125.7,95.9,120.9,96.6z"/>
</g>
</svg>
